<?xml version="1.0" encoding="UTF-8"?>
<svg width="600" height="530" xmlns="http://www.w3.org/2000/svg">
  <defs>
    <style>
      .terminal-text { font-family: 'Monaco', 'Menlo', 'Courier New', monospace; }
      .prompt { fill: #50fa7b; }
      .command { fill: #8be9fd; }
      .output { fill: #f8f8f2; }
      .percentage { fill: #ffb86c; }
      .bar-bg { fill: #44475a; }
      .bar-fill { fill: #50fa7b; }
    </style>
  </defs>
  
  <rect width="600" height="530" fill="#282a36" rx="8"/>
  
  <rect width="600" height="40" fill="#21222c" rx="8"/>
  <rect width="600" height="40" fill="#21222c"/>
  <circle cx="20" cy="20" r="6" fill="#ff5555"/>
  <circle cx="40" cy="20" r="6" fill="#ffb86c"/>
  <circle cx="60" cy="20" r="6" fill="#50fa7b"/>
  <text x="300" y="26" class="terminal-text output" font-size="14" text-anchor="middle" opacity="0.8">
    kyana0817@github ~ language-stats
  </text>
  
  <text x="20" y="70" class="terminal-text prompt" font-size="16" font-weight="bold">
    $
  </text>
  <text x="35" y="70" class="terminal-text command" font-size="16">
    analyze --repos=83
  </text>
  
  <text x="20" y="100" class="terminal-text output" font-size="14" opacity="0.7">
    Analyzing 83 repositories...
  </text>
  
  <line x1="20" y1="115" x2="580" y2="115" stroke="#44475a" stroke-width="1"/>

  <text x="20" y="145" class="terminal-text output" font-size="15">
    TypeScript     
  </text>
  
  <rect x="200" y="133" width="350" height="16" class="bar-bg" rx="2"/>
  <rect x="200" y="133" width="121.22027564399446" height="16" class="bar-fill" rx="2"/>
  
  <text x="565" y="145" class="terminal-text percentage" font-size="15" text-anchor="end" font-weight="bold">
    34.6%
  </text>

  <text x="20" y="180" class="terminal-text output" font-size="15">
    JavaScript     
  </text>
  
  <rect x="200" y="168" width="350" height="16" class="bar-bg" rx="2"/>
  <rect x="200" y="168" width="71.04536097898418" height="16" class="bar-fill" rx="2"/>
  
  <text x="565" y="180" class="terminal-text percentage" font-size="15" text-anchor="end" font-weight="bold">
    20.3%
  </text>

  <text x="20" y="215" class="terminal-text output" font-size="15">
    Elixir         
  </text>
  
  <rect x="200" y="203" width="350" height="16" class="bar-bg" rx="2"/>
  <rect x="200" y="203" width="47.76876634308994" height="16" class="bar-fill" rx="2"/>
  
  <text x="565" y="215" class="terminal-text percentage" font-size="15" text-anchor="end" font-weight="bold">
    13.6%
  </text>

  <text x="20" y="250" class="terminal-text output" font-size="15">
    Python         
  </text>
  
  <rect x="200" y="238" width="350" height="16" class="bar-bg" rx="2"/>
  <rect x="200" y="238" width="38.73342786514172" height="16" class="bar-fill" rx="2"/>
  
  <text x="565" y="250" class="terminal-text percentage" font-size="15" text-anchor="end" font-weight="bold">
    11.1%
  </text>

  <text x="20" y="285" class="terminal-text output" font-size="15">
    Vim Script     
  </text>
  
  <rect x="200" y="273" width="350" height="16" class="bar-bg" rx="2"/>
  <rect x="200" y="273" width="25.65920806776031" height="16" class="bar-fill" rx="2"/>
  
  <text x="565" y="285" class="terminal-text percentage" font-size="15" text-anchor="end" font-weight="bold">
    7.3%
  </text>

  <text x="20" y="320" class="terminal-text output" font-size="15">
    Astro          
  </text>
  
  <rect x="200" y="308" width="350" height="16" class="bar-bg" rx="2"/>
  <rect x="200" y="308" width="8.891481462491688" height="16" class="bar-fill" rx="2"/>
  
  <text x="565" y="320" class="terminal-text percentage" font-size="15" text-anchor="end" font-weight="bold">
    2.5%
  </text>

  <text x="20" y="355" class="terminal-text output" font-size="15">
    Rust           
  </text>
  
  <rect x="200" y="343" width="350" height="16" class="bar-bg" rx="2"/>
  <rect x="200" y="343" width="7.416726414467905" height="16" class="bar-fill" rx="2"/>
  
  <text x="565" y="355" class="terminal-text percentage" font-size="15" text-anchor="end" font-weight="bold">
    2.1%
  </text>

  <text x="20" y="390" class="terminal-text output" font-size="15">
    C++            
  </text>
  
  <rect x="200" y="378" width="350" height="16" class="bar-bg" rx="2"/>
  <rect x="200" y="378" width="6.299113323017206" height="16" class="bar-fill" rx="2"/>
  
  <text x="565" y="390" class="terminal-text percentage" font-size="15" text-anchor="end" font-weight="bold">
    1.8%
  </text>

  <text x="20" y="425" class="terminal-text output" font-size="15">
    Ruby           
  </text>
  
  <rect x="200" y="413" width="350" height="16" class="bar-bg" rx="2"/>
  <rect x="200" y="413" width="5.738394567474949" height="16" class="bar-fill" rx="2"/>
  
  <text x="565" y="425" class="terminal-text percentage" font-size="15" text-anchor="end" font-weight="bold">
    1.6%
  </text>

  <text x="20" y="460" class="terminal-text output" font-size="15">
    PHP            
  </text>
  
  <rect x="200" y="448" width="350" height="16" class="bar-bg" rx="2"/>
  <rect x="200" y="448" width="5.610717788930701" height="16" class="bar-fill" rx="2"/>
  
  <text x="565" y="460" class="terminal-text percentage" font-size="15" text-anchor="end" font-weight="bold">
    1.6%
  </text>

  
  <text x="20" y="510" class="terminal-text prompt" font-size="14">
    $
  </text>
  <text x="35" y="510" class="terminal-text output" font-size="14" opacity="0.5">
    █
  </text>
</svg>